<?xml version="1.0" encoding="UTF-8"?>
<!DOCTYPE svg PUBLIC "-//W3C//DTD SVG 1.1//EN" "http://www.w3.org/Graphics/SVG/1.1/DTD/svg11.dtd">
<svg xmlns="http://www.w3.org/2000/svg" version="1.1" width="647px" height="647px" style="shape-rendering:geometricPrecision; text-rendering:geometricPrecision; image-rendering:optimizeQuality; fill-rule:evenodd; clip-rule:evenodd" xmlns:xlink="http://www.w3.org/1999/xlink">
<g><path style="opacity:0.996" fill="#000046" d="M 303.5,-0.5 C 316.5,-0.5 329.5,-0.5 342.5,-0.5C 459.357,10.3141 547.523,65.9808 607,166.5C 629.405,207.868 642.571,251.868 646.5,298.5C 646.5,315.167 646.5,331.833 646.5,348.5C 635.088,456.544 584.088,540.044 493.5,599C 448.46,626.254 399.793,642.087 347.5,646.5C 331.167,646.5 314.833,646.5 298.5,646.5C 199.219,636.457 119.719,591.79 60,512.5C 24.2505,461.421 4.08384,404.754 -0.5,342.5C -0.5,329.833 -0.5,317.167 -0.5,304.5C 9.33255,190.948 62.3326,104.115 158.5,44C 203.5,17.9419 251.833,3.10858 303.5,-0.5 Z"/></g>
<g><path style="opacity:1" fill="#7e00fd" d="M 199.5,95.5 C 251.45,103.755 303.45,111.588 355.5,119C 391.246,125.013 426.913,131.346 462.5,138C 463.701,138.903 464.535,140.069 465,141.5C 470.223,218.848 475.223,296.182 480,373.5C 479.25,374.126 478.416,374.626 477.5,375C 427.833,375.333 378.167,375.667 328.5,376C 326.285,377.044 323.952,377.71 321.5,378C 290.5,378.667 259.5,378.667 228.5,378C 225.333,376.833 223.167,374.667 222,371.5C 213.526,281.7 205.359,191.867 197.5,102C 197.338,99.498 198.005,97.3313 199.5,95.5 Z"/></g>
<g><path style="opacity:1" fill="#7b00fa" d="M 195.5,322.5 C 195.784,324.415 195.451,326.081 194.5,327.5C 185.953,254.599 178.453,181.599 172,108.5C 172.465,107.069 173.299,105.903 174.5,105C 178.748,103.695 182.915,102.195 187,100.5C 190.43,174.472 193.263,248.472 195.5,322.5 Z"/></g>
<g><path style="opacity:1" fill="#020348" d="M 240.5,133.5 C 307.87,138.91 374.536,148.743 440.5,163C 442.049,164.214 443.215,165.714 444,167.5C 452.078,207.238 455.245,247.405 453.5,288C 453.654,305.921 453.154,323.755 452,341.5C 387.869,341.249 323.702,339.416 259.5,336C 257.513,334.681 256.346,332.848 256,330.5C 252.421,266.17 246.921,202.004 239.5,138C 239.605,136.408 239.939,134.908 240.5,133.5 Z"/></g>
<g><path style="opacity:1" fill="#f6f6f8" d="M 401.5,237.5 C 395.021,238.491 388.354,238.824 381.5,238.5C 370.842,238.008 360.176,237.675 349.5,237.5C 341.427,237.381 333.427,237.881 325.5,239C 354.934,246.922 383.934,256.256 412.5,267C 389.546,265.754 366.546,265.254 343.5,265.5C 339.818,265.335 336.152,265.501 332.5,266C 333.244,267.039 334.244,267.539 335.5,267.5C 363.08,274.73 390.413,282.896 417.5,292C 419.063,294.476 418.396,295.976 415.5,296.5C 391.887,292.854 368.22,292.021 344.5,294C 372.856,302.729 401.189,311.563 429.5,320.5C 429.5,321.5 429.5,322.5 429.5,323.5C 417.822,322.897 406.155,322.063 394.5,321C 380.833,320.333 367.167,320.333 353.5,321C 352.167,321.333 350.833,321.667 349.5,322C 359.5,325.333 369.5,328.667 379.5,332C 376.456,333.072 373.29,333.572 370,333.5C 335.514,331.931 301.014,330.764 266.5,330C 265.069,329.535 263.903,328.701 263,327.5C 258.936,269.068 253.936,210.734 248,152.5C 262.935,151.308 277.769,152.475 292.5,156C 321.991,163.497 351.324,171.497 380.5,180C 381.973,180.71 382.64,181.876 382.5,183.5C 354.206,181.539 325.873,181.039 297.5,182C 330.649,190.874 363.649,200.541 396.5,211C 378.342,210.698 360.175,210.198 342,209.5C 333.132,209.478 324.299,209.978 315.5,211C 344.355,219.214 373.021,228.047 401.5,237.5 Z"/></g>
<g><path style="opacity:1" fill="#7a00f8" d="M 161.5,188.5 C 162.873,188.343 164.207,188.51 165.5,189C 156.333,196.833 147.167,204.667 138,212.5C 137.517,213.448 137.351,214.448 137.5,215.5C 146.504,214.4 155.504,214.4 164.5,215.5C 155.291,221.265 146.291,227.265 137.5,233.5C 146.538,233.826 155.538,233.826 164.5,233.5C 163.352,235.149 162.019,236.649 160.5,238C 154.418,241.123 148.585,244.623 143,248.5C 141.76,251.906 142.927,253.573 146.5,253.5C 154.561,252.663 162.561,251.83 170.5,251C 161.665,256.585 152.665,261.919 143.5,267C 142.01,269.2 142.343,271.034 144.5,272.5C 152.469,271.472 160.469,270.972 168.5,271C 160.332,276.252 151.999,281.252 143.5,286C 140.409,289.867 141.409,291.7 146.5,291.5C 153.489,290.467 160.489,289.967 167.5,290C 154.532,297.317 141.199,303.817 127.5,309.5C 127.718,276.789 126.885,244.122 125,211.5C 136.978,203.434 149.145,195.767 161.5,188.5 Z"/></g>
<g><path style="opacity:1" fill="#9998b5" d="M 401.5,237.5 C 402.766,238.09 404.099,238.59 405.5,239C 397.323,239.823 389.323,239.656 381.5,238.5C 388.354,238.824 395.021,238.491 401.5,237.5 Z"/></g>
<g><path style="opacity:1" fill="#535282" d="M 343.5,265.5 C 340.833,266.167 338.167,266.833 335.5,267.5C 334.244,267.539 333.244,267.039 332.5,266C 336.152,265.501 339.818,265.335 343.5,265.5 Z"/></g>
<g><path style="opacity:1" fill="#7e00fe" d="M 155.5,315.5 C 159.007,314.994 162.174,315.66 165,317.5C 165.5,337.164 165.667,356.831 165.5,376.5C 161.894,376.789 158.394,376.456 155,375.5C 154.18,355.427 154.346,335.427 155.5,315.5 Z"/></g>
<g><path style="opacity:1" fill="#340090" d="M 195.5,322.5 C 196.652,327.985 196.818,333.651 196,339.5C 195.172,335.534 194.672,331.534 194.5,327.5C 195.451,326.081 195.784,324.415 195.5,322.5 Z"/></g>
<g><path style="opacity:1" fill="#7c00fb" d="M 366.5,404.5 C 355.654,404.828 344.987,404.494 334.5,403.5C 358.97,400.553 383.637,398.053 408.5,396C 408.957,395.586 409.291,395.086 409.5,394.5C 404.248,393.194 398.914,392.361 393.5,392C 375.524,390.57 357.524,389.57 339.5,389C 333.5,388.167 327.5,387.333 321.5,386.5C 322.376,385.749 323.376,385.249 324.5,385C 365.502,383.657 406.502,382.657 447.5,382C 448.416,382.374 449.25,382.874 450,383.5C 450.496,388.208 450.162,392.875 449,397.5C 448.727,399.329 447.893,400.829 446.5,402C 419.857,403.55 393.19,404.383 366.5,404.5 Z"/></g>
<g><path style="opacity:1" fill="#290080" d="M 334.5,403.5 C 344.987,404.494 355.654,404.828 366.5,404.5C 355.66,405.824 344.66,405.824 333.5,404.5C 333.624,403.893 333.957,403.56 334.5,403.5 Z"/></g>
<g><path style="opacity:1" fill="#200074" d="M 276.5,407.5 C 283.677,406.181 291.01,406.181 298.5,407.5C 298.376,408.107 298.043,408.44 297.5,408.5C 290.687,407.509 283.687,407.175 276.5,407.5 Z"/></g>
<g><path style="opacity:1" fill="#7b00fa" d="M 276.5,407.5 C 283.687,407.175 290.687,407.509 297.5,408.5C 293.771,408.687 291.104,410.353 289.5,413.5C 291.235,416.743 293.568,419.577 296.5,422C 291.167,422.667 285.833,422.667 280.5,422C 273.582,421.225 271.582,417.558 274.5,411C 274.608,409.319 275.275,408.152 276.5,407.5 Z"/></g>
<g><path style="opacity:1" fill="#7800f5" d="M 375.5,421.5 C 362.167,420.833 348.833,420.167 335.5,419.5C 358.028,415.647 380.694,412.981 403.5,411.5C 404.006,415.007 403.34,418.174 401.5,421C 392.84,421.5 384.173,421.666 375.5,421.5 Z"/></g>
<g><path style="opacity:1" fill="#3b009b" d="M 335.5,419.5 C 348.833,420.167 362.167,420.833 375.5,421.5C 361.163,421.667 346.829,421.5 332.5,421C 333.244,419.961 334.244,419.461 335.5,419.5 Z"/></g>
<g><path style="opacity:1" fill="#7e00fe" d="M 298.5,434.5 C 355.834,434.333 413.168,434.5 470.5,435C 473.059,437.925 473.059,440.925 470.5,444C 413.167,444.667 355.833,444.667 298.5,444C 295.888,440.836 295.888,437.669 298.5,434.5 Z"/></g>
<g><path style="opacity:1" fill="#7e00fd" d="M 186.5,435.5 C 218.835,435.333 251.168,435.5 283.5,436C 284.982,438.592 284.648,440.925 282.5,443C 250.5,443.667 218.5,443.667 186.5,443C 185.221,440.502 185.221,438.002 186.5,435.5 Z"/></g>
<g><path style="opacity:1" fill="#220077" d="M 119.5,457.5 C 164.331,456.335 209.331,456.169 254.5,457C 249.531,457.968 244.531,458.468 239.5,458.5C 199.67,457.501 159.67,457.168 119.5,457.5 Z"/></g>
<g><path style="opacity:1" fill="#7d00fc" d="M 291.5,455.5 C 370.502,455.608 449.502,456.108 528.5,457C 529.821,467.273 530.488,477.773 530.5,488.5C 530.167,498.833 529.833,509.167 529.5,519.5C 449.874,520.664 370.207,520.83 290.5,520C 289.667,519.167 288.833,518.333 288,517.5C 287.333,498.167 287.333,478.833 288,459.5C 288.69,457.65 289.856,456.316 291.5,455.5 Z"/></g>
<g><path style="opacity:1" fill="#7900f7" d="M 119.5,457.5 C 159.67,457.168 199.67,457.501 239.5,458.5C 204.114,461.008 168.781,463.841 133.5,467C 131.951,468.214 130.785,469.714 130,471.5C 127.082,480.752 124.415,490.085 122,499.5C 120.451,503.99 118.617,508.323 116.5,512.5C 115.334,494.843 115.167,477.176 116,459.5C 116.816,458.177 117.983,457.511 119.5,457.5 Z"/></g>
<g><path style="opacity:1" fill="#000148" d="M 307.5,468.5 C 375.167,468.333 442.834,468.5 510.5,469C 511,469.5 511.5,470 512,470.5C 512.667,480.833 512.667,491.167 512,501.5C 508.1,495.804 505.766,489.471 505,482.5C 503.773,480.274 501.939,478.774 499.5,478C 438.835,477.043 378.168,476.709 317.5,477C 315.959,478.579 314.792,480.413 314,482.5C 311.929,490.381 309.262,498.048 306,505.5C 305.333,493.833 305.333,482.167 306,470.5C 306.717,469.956 307.217,469.289 307.5,468.5 Z"/></g>
<g><path style="opacity:1" fill="#000046" d="M 435.5,490.5 C 455.5,490.5 475.5,490.5 495.5,490.5C 495.768,493.119 495.435,495.619 494.5,498C 474.833,498.667 455.167,498.667 435.5,498C 434.221,495.502 434.221,493.002 435.5,490.5 Z"/></g>
</svg>
