<?xml version="1.0" standalone="no"?>
<!DOCTYPE svg PUBLIC "-//W3C//DTD SVG 20010904//EN"
 "http://www.w3.org/TR/2001/REC-SVG-20010904/DTD/svg10.dtd">
<svg version="1.0" xmlns="http://www.w3.org/2000/svg"
 width="1200.000000pt" height="630.000000pt" viewBox="0 0 1200.000000 630.000000"
 preserveAspectRatio="xMidYMid meet">

<g transform="translate(0.000000,630.000000) scale(0.100000,-0.100000)"
fill="#000000" stroke="none">
<path d="M5034 6049 c-3 -6 -15 -9 -25 -6 -10 3 -22 1 -25 -4 -3 -5 -16 -9
-30 -9 -13 0 -24 -4 -24 -10 0 -5 -9 -10 -20 -10 -11 0 -28 -4 -38 -9 -23 -12
-75 -35 -139 -60 -140 -55 -389 -198 -544 -313 -309 -228 -618 -566 -815 -888
-75 -123 -193 -367 -243 -503 -66 -178 -130 -421 -160 -607 -42 -264 -47 -608
-12 -860 54 -377 147 -683 305 -998 106 -211 249 -432 299 -462 38 -23 97 -26
135 -6 15 8 203 191 417 405 l390 391 0 63 c-1 54 -6 71 -42 133 -82 146 -160
359 -192 529 -87 464 22 962 299 1357 83 120 288 324 410 410 197 138 474 258
700 302 166 33 187 35 339 40 84 3 156 7 158 10 8 8 -1106 1116 -1121 1116 -8
0 -18 -5 -22 -11z"/>
<path d="M5890 4024 c-212 -37 -362 -113 -505 -258 -342 -345 -340 -893 4
-1237 109 -108 227 -177 387 -225 77 -23 108 -26 229 -27 116 0 154 3 220 22
258 72 464 240 571 466 67 142 87 227 88 380 1 255 -78 451 -253 626 -166 166
-355 247 -591 254 -69 2 -136 2 -150 -1z"/>
<path d="M4950 1644 c-41 -27 -780 -767 -796 -796 -21 -41 -18 -116 7 -153 36
-52 262 -197 469 -301 310 -155 602 -245 972 -301 144 -22 661 -25 778 -5 41
7 117 20 167 28 210 34 505 124 715 219 247 111 550 296 595 364 27 39 30 98
9 139 -8 15 -194 206 -413 425 l-399 397 -55 0 c-30 0 -59 -4 -65 -9 -17 -17
-199 -107 -279 -138 -76 -30 -167 -58 -265 -81 -128 -31 -196 -37 -390 -37
-172 1 -223 4 -315 23 -193 40 -351 97 -521 188 -111 59 -167 69 -214 38z"/>
</g>
</svg>
