<?xml version="1.0" standalone="no"?>
<!DOCTYPE svg PUBLIC "-//W3C//DTD SVG 20010904//EN"
 "http://www.w3.org/TR/2001/REC-SVG-20010904/DTD/svg10.dtd">
<svg version="1.0" xmlns="http://www.w3.org/2000/svg"
 width="225.000000pt" height="225.000000pt" viewBox="0 0 225.000000 225.000000"
 preserveAspectRatio="xMidYMid meet">

<g transform="translate(0.000000,225.000000) scale(0.100000,-0.100000)"
fill="#000000" stroke="none">
<path d="M1605 1209 c-10 -15 3 -25 16 -12 7 7 7 13 1 17 -6 3 -14 1 -17 -5z"/>
<path d="M310 1140 c0 -40 4 -70 10 -70 6 0 10 11 10 25 0 32 16 32 47 -1 27
-29 40 -27 23 5 -7 15 -8 27 0 40 5 11 10 24 10 30 0 20 -33 41 -66 41 l-34 0
0 -70z m68 29 c3 -17 -23 -33 -39 -23 -5 3 -9 14 -9 25 0 15 6 20 22 17 13 -2
24 -10 26 -19z"/>
<path d="M890 1200 c0 -5 9 -10 20 -10 18 0 20 -7 20 -60 0 -33 4 -60 10 -60
6 0 10 27 10 60 0 57 1 60 25 60 14 0 25 5 25 10 0 6 -25 10 -55 10 -30 0 -55
-4 -55 -10z"/>
<path d="M1020 1140 c0 -40 4 -70 10 -70 6 0 10 15 10 34 0 39 20 62 38 44 7
-7 12 -24 12 -39 0 -15 5 -31 10 -34 6 -4 10 11 10 38 0 53 -18 74 -49 57 -19
-9 -21 -8 -21 15 0 14 -4 25 -10 25 -6 0 -10 -30 -10 -70z"/>
<path d="M1490 1140 c0 -40 4 -70 10 -70 6 0 10 14 10 30 0 27 3 30 30 30 38
0 40 18 3 22 -40 4 -36 32 5 36 48 5 39 22 -13 22 l-45 0 0 -70z"/>
<path d="M1650 1144 c0 -61 1 -66 20 -61 11 3 23 1 26 -4 15 -26 54 11 54 51
0 19 -7 33 -20 40 -30 16 -42 2 -19 -21 16 -16 17 -23 9 -40 -6 -11 -17 -18
-23 -16 -11 3 -14 18 -16 90 -1 17 -7 27 -16 27 -12 0 -15 -14 -15 -66z"/>
<path d="M773 1180 c-8 -12 -9 -21 -3 -25 6 -3 10 -21 10 -40 0 -21 6 -35 16
-39 22 -8 31 1 16 16 -16 16 -15 65 0 70 9 3 8 9 -4 21 -21 21 -21 21 -35 -3z"/>
<path d="M448 1169 c-25 -14 -24 -75 1 -89 26 -13 34 -13 57 5 18 15 17 16
-12 10 -23 -4 -33 -2 -37 9 -5 13 1 16 28 16 39 0 46 17 19 44 -18 18 -32 20
-56 5z m47 -18 c3 -5 1 -13 -5 -16 -15 -9 -43 3 -35 15 8 13 32 13 40 1z"/>
<path d="M563 1173 c-24 -9 -13 -25 12 -19 18 5 25 2 25 -9 0 -9 -9 -15 -25
-15 -14 0 -28 -7 -31 -15 -10 -24 14 -43 51 -42 34 1 35 2 35 44 0 51 -26 73
-67 56z m37 -68 c0 -8 -7 -15 -15 -15 -8 0 -15 7 -15 15 0 8 7 15 15 15 8 0
15 -7 15 -15z"/>
<path d="M670 1160 c-11 -11 -20 -27 -20 -35 0 -19 35 -55 53 -55 8 0 22 9 32
20 14 16 15 20 4 20 -8 0 -20 -5 -26 -11 -16 -16 -33 -2 -33 26 0 28 17 42 33
26 6 -6 18 -11 26 -11 11 0 10 4 -4 20 -10 11 -24 20 -32 20 -7 0 -22 -9 -33
-20z"/>
<path d="M1140 1125 c0 -30 5 -55 10 -55 6 0 10 16 10 36 0 27 5 37 20 41 11
3 20 12 20 19 0 17 -12 18 -28 2 -9 -9 -12 -9 -12 0 0 7 -4 12 -10 12 -5 0
-10 -25 -10 -55z"/>
<path d="M1226 1164 c-20 -20 -20 -58 0 -78 20 -20 35 -20 60 0 18 15 18 15
-7 10 -17 -4 -31 0 -39 9 -11 13 -7 15 24 15 29 0 36 4 36 20 0 18 -26 40 -49
40 -5 0 -17 -7 -25 -16z m52 -22 c2 -7 -6 -12 -17 -12 -21 0 -27 11 -14 24 9
9 26 2 31 -12z"/>
<path d="M1340 1160 c-11 -11 -20 -27 -20 -35 0 -18 35 -55 53 -55 7 0 22 7
33 15 18 14 17 15 -15 12 -20 -1 -36 3 -38 11 -3 8 7 12 31 12 42 0 48 20 14
44 -29 20 -34 20 -58 -4z m48 -18 c2 -7 -6 -12 -17 -12 -21 0 -27 11 -14 24 9
9 26 2 31 -12z"/>
<path d="M1600 1125 c0 -44 3 -53 15 -49 10 4 15 20 15 49 0 29 -5 45 -15 49
-12 4 -15 -5 -15 -49z"/>
<path d="M1792 1164 c-31 -22 -26 -63 10 -84 25 -14 29 -13 45 3 17 18 17 18
-11 15 -17 -2 -31 2 -33 10 -3 8 7 12 31 12 41 0 45 11 16 40 -24 24 -29 24
-58 4z m46 -22 c2 -7 -6 -12 -17 -12 -21 0 -27 11 -14 24 9 9 26 2 31 -12z"/>
<path d="M1890 1127 c0 -46 3 -55 15 -51 9 4 15 19 15 40 0 24 5 34 15 34 8 0
15 7 15 15 0 17 -16 20 -25 5 -5 -8 -11 -7 -21 1 -12 10 -14 3 -14 -44z"/>
</g>
</svg>
